# xmcd
#
# Track frame offsets:
# 150
# 13685
# 26155
# 41435
# 53271
# 65647
# 78857
# 91616
# 105294
# 120403
# 132002
# 145598
# 159307
# 174551
# 187472
# 201587
# 214616
# 232474
# 246572
# 260572
# 279255
# 295720
# 307560
# 321509
#
# Disc length: 4475 seconds
#
#
# Revision: 0
# Processed by: cddbd v1.5.2PL0 Copyright (c) Steve Scherf et al.
# Submitted via: FreeRIP 2.951 
#
DISCID=4f117918
DTITLE=Vários - Bailão Sertanejo vol.05
DYEAR=1900
DGENRE=Sertanejo
TTITLE0=Credo em cruz ave-maria
TTITLE1=Na sola da bota
TTITLE2=A malvada
TTITLE3=Aqui pra ela
TTITLE4=O amor é poderoso
TTITLE5=Vontade de te ver
TTITLE6=Canta moçada
TTITLE7=O que eu tô fazendo aqui
TTITLE8=Festa do interior
TTITLE9=Tá liberado
TTITLE10=Ogrito da galera
TTITLE11=Besta de paixão
TTITLE12=Bailão cuiabano
TTITLE13=Ei, pissiu
TTITLE14=Abre a janela
TTITLE15=Bota pra moer
TTITLE16=È carro
TTITLE17=Tendel
TTITLE18=Tô querendo amor
TTITLE19=Paixão caliente
TTITLE20=Dá- me dá-me
TTITLE21=Chorar por amor nunca mais
TTITLE22=Peão não chora
TTITLE23=Tô numa boa com a patroa
EXTD=
EXTT0=
EXTT1=
EXTT2=
EXTT3=
EXTT4=
EXTT5=
EXTT6=
EXTT7=
EXTT8=
EXTT9=
EXTT10=
EXTT11=
EXTT12=
EXTT13=
EXTT14=
EXTT15=
EXTT16=
EXTT17=
EXTT18=
EXTT19=
EXTT20=
EXTT21=
EXTT22=
EXTT23=
PLAYORDER=
